<svg width="1950" height="1097" viewBox="0 0 1950 1097" fill="none" xmlns="http://www.w3.org/2000/svg">
<path d="M89.2774 306.804L160.812 532.409H17.7432L89.2774 306.804Z" fill="#EFF1F2"/>
<path d="M89.2776 365.585L166.951 588.002H11.6028L89.2776 365.585Z" fill="#EFF1F2"/>
<path d="M89.2773 283.211L155.587 470.685H22.9661L89.2773 283.211Z" fill="#EFF1F2"/>
<path d="M89.2772 286.475L148.639 406.721H29.9146L89.2772 286.475Z" fill="#EFF1F2"/>
<path d="M89.2774 281.222L133.493 350.819H45.061L89.2774 281.222Z" fill="#EFF1F2"/>
<path d="M79.9449 616.69H100.264V580.727H79.9449V616.69Z" fill="#EFF1F2"/>
<path d="M1024.32 494.781L1095.85 720.388H952.781L1024.32 494.781Z" fill="#EFF1F2"/>
<path d="M1024.32 553.562L1101.99 775.98H946.641L1024.32 553.562Z" fill="#EFF1F2"/>
<path d="M1024.32 471.189L1090.63 658.662H958.005L1024.32 471.189Z" fill="#EFF1F2"/>
<path d="M1024.32 474.454L1083.68 594.7H964.953L1024.32 474.454Z" fill="#EFF1F2"/>
<path d="M1024.32 469.2L1068.53 538.798H980.099L1024.32 469.2Z" fill="#EFF1F2"/>
<path d="M1014.98 804.668H1035.3V768.705H1014.98V804.668Z" fill="#EFF1F2"/>
<path d="M184.387 385.465L238.306 555.516H130.468L184.387 385.465Z" fill="#E0E2E5"/>
<path d="M184.387 429.77L242.934 597.419H125.841L184.387 429.77Z" fill="#E0E2E5"/>
<path d="M184.387 367.683L234.368 508.99H134.405L184.387 367.683Z" fill="#E0E2E5"/>
<path d="M184.387 370.142L229.132 460.778H139.643L184.387 370.142Z" fill="#E0E2E5"/>
<path d="M184.387 366.182L217.715 418.642H151.059L184.387 366.182Z" fill="#E0E2E5"/>
<path d="M177.353 619.042H192.669V591.935H177.353V619.042Z" fill="#E0E2E5"/>
<path d="M290.86 333.784L362.395 559.391H219.326L290.86 333.784Z" fill="#EFF1F2"/>
<path d="M290.86 392.565L368.534 614.983H213.187L290.86 392.565Z" fill="#EFF1F2"/>
<path d="M290.86 310.193L357.17 497.665H224.55L290.86 310.193Z" fill="#EFF1F2"/>
<path d="M290.86 313.457L350.223 433.703H231.498L290.86 313.457Z" fill="#EFF1F2"/>
<path d="M290.86 308.203L335.076 377.799H246.644L290.86 308.203Z" fill="#EFF1F2"/>
<path d="M281.528 643.671H301.848V607.708H281.528V643.671Z" fill="#EFF1F2"/>
<path d="M864.447 525.342L807.539 704.824H921.357L864.447 525.342Z" fill="#EFF1F2"/>
<path d="M864.448 572.105L802.654 749.051H926.241L864.448 572.105Z" fill="#EFF1F2"/>
<path d="M864.448 506.574L811.695 655.718H917.202L864.448 506.574Z" fill="#EFF1F2"/>
<path d="M864.447 509.17L817.222 604.832H911.674L864.447 509.17Z" fill="#EFF1F2"/>
<path d="M864.447 504.992L829.272 560.359H899.624L864.447 504.992Z" fill="#EFF1F2"/>
<path d="M871.872 743.263H855.707V771.873H871.872V743.263Z" fill="#EFF1F2"/>
<path d="M768.444 516.543L822.363 686.594H714.525L768.444 516.543Z" fill="#E0E2E5"/>
<path d="M768.445 560.849L826.991 728.497H709.897L768.445 560.849Z" fill="#E0E2E5"/>
<path d="M768.445 498.761L818.426 640.068H718.463L768.445 498.761Z" fill="#E0E2E5"/>
<path d="M768.445 501.221L813.189 591.856H723.699L768.445 501.221Z" fill="#E0E2E5"/>
<path d="M768.444 497.26L801.773 549.719H735.116L768.444 497.26Z" fill="#E0E2E5"/>
<path d="M761.41 750.12H776.726V723.013H761.41V750.12Z" fill="#E0E2E5"/>
<path d="M1733.73 642.973L1787.65 813.024H1679.81L1733.73 642.973Z" fill="#E0E2E5"/>
<path d="M1733.73 687.279L1792.28 854.926H1675.18L1733.73 687.279Z" fill="#E0E2E5"/>
<path d="M1733.73 625.19L1783.71 766.498H1683.75L1733.73 625.19Z" fill="#E0E2E5"/>
<path d="M1733.73 627.65L1778.48 718.285H1688.99L1733.73 627.65Z" fill="#E0E2E5"/>
<path d="M1733.73 623.691L1767.06 676.149H1700.4L1733.73 623.691Z" fill="#E0E2E5"/>
<path d="M1726.7 876.55H1742.01V849.443H1726.7V876.55Z" fill="#E0E2E5"/>
<path d="M1839.98 554.148L1768.45 779.755H1911.52L1839.98 554.148Z" fill="#EFF1F2"/>
<path d="M1839.98 612.929L1762.31 835.347H1917.66L1839.98 612.929Z" fill="#EFF1F2"/>
<path d="M1839.98 530.557L1773.67 718.029H1906.29L1839.98 530.557Z" fill="#EFF1F2"/>
<path d="M1839.98 533.82L1780.62 654.066H1899.34L1839.98 533.82Z" fill="#EFF1F2"/>
<path d="M1839.98 528.568L1795.77 598.164H1884.2L1839.98 528.568Z" fill="#EFF1F2"/>
<path d="M1849.31 828.072H1828.99V864.035H1849.31V828.072Z" fill="#EFF1F2"/>
<path d="M0 613.292C121.042 593.139 259.377 610.184 410.168 696.43C643.579 829.931 808.41 538.089 1093.12 1038.07H0V613.292Z" fill="#D0D4D8"/>
<path d="M1949.79 1045.73H119.708C119.708 1045.73 212.567 966.528 363.464 966.528C491.883 965.176 627.101 994.319 627.101 994.319C686.033 946.974 1054.44 675.323 1559.02 842.78C1700.55 889.748 1817.44 848.095 1949.79 868.014V1045.73Z" fill="#D0D4D8"/>
<path d="M0 958.055C211.81 826.961 365.072 940.94 566.154 868.743C1090.72 680.401 1440.11 923.783 1501.38 977.033C1501.38 977.033 1673.97 974.477 1807.47 975.997C1862.8 975.997 1910.81 991.056 1949.79 1010.54V1097H0V958.055Z" fill="#E0E2E5"/>
<path d="M1206.07 569.16L1201.24 576.767L1312.87 647.723L1317.71 640.116L1206.07 569.16Z" fill="#101112"/>
<path d="M1450.19 578.549L1445.14 571.085L1335.61 645.252L1340.66 652.716L1450.19 578.549Z" fill="#101112"/>
<path d="M1429.04 566.68L1420.07 565.78L1417.33 593.09L1426.3 593.99L1429.04 566.68Z" fill="#101112"/>
<path d="M1328.47 713.82C1372.75 713.82 1408.65 677.917 1408.65 633.628C1408.65 589.339 1372.75 553.436 1328.47 553.436C1284.19 553.436 1248.3 589.339 1248.3 633.628C1248.3 677.917 1284.19 713.82 1328.47 713.82Z" fill="#EFF1F2"/>
<path d="M1328.47 858.904C1384.69 858.904 1430.26 813.322 1430.26 757.093C1430.26 700.865 1384.69 655.283 1328.47 655.283C1272.26 655.283 1226.68 700.865 1226.68 757.093C1226.68 813.322 1272.26 858.904 1328.47 858.904Z" fill="#EFF1F2"/>
<path d="M1328.47 587.091C1359.32 587.091 1384.32 562.081 1384.32 531.228C1384.32 500.376 1359.32 475.365 1328.47 475.365C1297.63 475.365 1272.62 500.376 1272.62 531.228C1272.62 562.081 1297.63 587.091 1328.47 587.091Z" fill="#EFF1F2"/>
<path d="M1328.47 611.114C1332.42 611.114 1335.61 607.915 1335.61 603.97C1335.61 600.024 1332.42 596.826 1328.47 596.826C1324.53 596.826 1321.33 600.024 1321.33 603.97C1321.33 607.915 1324.53 611.114 1328.47 611.114Z" fill="#101112"/>
<path d="M1328.47 643.79C1332.42 643.79 1335.61 640.592 1335.61 636.646C1335.61 632.701 1332.42 629.502 1328.47 629.502C1324.53 629.502 1321.33 632.701 1321.33 636.646C1321.33 640.592 1324.53 643.79 1328.47 643.79Z" fill="#101112"/>
<path d="M1328.47 676.467C1332.42 676.467 1335.61 673.268 1335.61 669.323C1335.61 665.377 1332.42 662.178 1328.47 662.178C1324.53 662.178 1321.33 665.377 1321.33 669.323C1321.33 673.268 1324.53 676.467 1328.47 676.467Z" fill="#101112"/>
<path d="M1228.01 560.217L1219.93 564.208L1236.4 597.564L1244.48 593.574L1228.01 560.217Z" fill="#101112"/>
<path d="M1293.34 562.451V632.111H1312.9V562.451H1293.34Z" fill="#007A42"/>
<path d="M1386.14 552.702H1272.26V572.268H1386.14V552.702Z" fill="#005F32"/>
<path d="M1295.5 628.417H1293.34V640.949H1295.5V628.417Z" fill="#007A42"/>
<path d="M1312.9 628.417H1310.74V640.949H1312.9V628.417Z" fill="#007A42"/>
<path d="M1308.55 628.417H1306.39V640.949H1308.55V628.417Z" fill="#007A42"/>
<path d="M1304.2 628.417H1302.04V640.949H1304.2V628.417Z" fill="#007A42"/>
<path d="M1299.85 628.417H1297.69V640.949H1299.85V628.417Z" fill="#007A42"/>
<path d="M1363.99 528.73L1326.36 521.555C1321.94 526.338 1321.94 531.121 1326.36 535.904L1363.99 528.73Z" fill="#006C3A"/>
<path d="M1369.25 444.239H1286.17V483.037H1369.25V444.239Z" fill="#383B3E"/>
<path d="M1376.76 480.202H1278.66V495.589H1376.76V480.202Z" fill="#232628"/>
<path d="M923.665 802.183C915.289 799.505 910.598 794.6 911.294 786.438L933.943 772.749C935.099 771.901 936.521 771.494 937.951 771.604C939.381 771.713 940.724 772.331 941.738 773.345L942.061 773.667L923.665 802.183Z" fill="#B2B9C0"/>
<path d="M1059.92 688.164V682.045C1059.92 681.344 1059.78 680.65 1059.52 680.003C1059.25 679.355 1058.86 678.767 1058.36 678.272C1057.86 677.776 1057.28 677.383 1056.63 677.115C1055.98 676.847 1055.29 676.709 1054.59 676.709C1053.17 676.709 1051.82 677.271 1050.82 678.272C1049.82 679.272 1049.25 680.629 1049.25 682.045V688.164H1033.92V684.178L1043.53 674.567C1044.53 673.567 1045.09 672.21 1045.09 670.794C1045.09 669.379 1044.53 668.022 1043.53 667.022C1042.53 666.021 1041.17 665.459 1039.76 665.459C1038.34 665.459 1036.99 666.021 1035.99 667.022L1033.92 669.086V665.65C1033.92 664.949 1033.79 664.255 1033.52 663.608C1033.25 662.96 1032.86 662.372 1032.36 661.877C1031.87 661.381 1031.28 660.988 1030.63 660.72C1029.98 660.452 1029.29 660.314 1028.59 660.314C1027.89 660.314 1027.19 660.452 1026.55 660.72C1025.9 660.988 1025.31 661.381 1024.82 661.877C1024.32 662.372 1023.93 662.96 1023.66 663.608C1023.39 664.255 1023.25 664.949 1023.25 665.65V688.164H1009.79C1008.35 688.164 1006.97 687.594 1005.96 686.58C1004.95 685.565 1004.38 684.188 1004.38 682.753V668.315L1023.58 649.107C1024.58 648.107 1025.14 646.749 1025.14 645.334C1025.14 643.919 1024.58 642.562 1023.58 641.561C1022.58 640.561 1021.22 639.998 1019.81 639.998C1018.39 639.998 1017.04 640.561 1016.03 641.561L1004.38 653.223V636.568C1004.38 635.153 1003.81 633.796 1002.81 632.795C1001.81 631.795 1000.46 631.232 999.041 631.232C997.626 631.232 996.269 631.795 995.269 632.795C994.269 633.796 993.707 635.153 993.707 636.568V683.398C993.707 687.493 995.333 691.419 998.227 694.314C1001.12 697.209 1005.05 698.836 1009.14 698.836H1023.25V698.842H1033.92V698.836H1049.25V698.884L1056.87 698.855C1057.53 698.852 1058.18 698.98 1058.79 699.23C1059.4 699.481 1059.95 699.849 1060.42 700.314C1060.88 700.779 1061.25 701.331 1061.51 701.939C1061.76 702.548 1061.89 703.2 1061.89 703.858V719.032H1072.56V700.803C1072.56 697.451 1071.23 694.237 1068.86 691.866C1066.49 689.496 1063.27 688.164 1059.92 688.164Z" fill="#383B3E"/>
<path d="M1102.36 688.164V682.045C1102.36 680.629 1102.92 679.272 1103.92 678.272C1104.92 677.271 1106.28 676.709 1107.69 676.709C1109.11 676.709 1110.47 677.271 1111.47 678.272C1112.47 679.272 1113.03 680.629 1113.03 682.045V688.164H1128.36V684.178L1118.75 674.567C1118.25 674.072 1117.86 673.484 1117.59 672.836C1117.33 672.189 1117.19 671.495 1117.19 670.794C1117.19 670.094 1117.33 669.4 1117.59 668.753C1117.86 668.105 1118.25 667.517 1118.75 667.022C1119.75 666.021 1121.11 665.459 1122.52 665.459C1123.94 665.459 1125.29 666.021 1126.29 667.022L1128.36 669.086V665.65C1128.36 664.949 1128.5 664.255 1128.76 663.608C1129.03 662.96 1129.43 662.372 1129.92 661.877C1130.42 661.381 1131 660.988 1131.65 660.72C1132.3 660.452 1132.99 660.314 1133.69 660.314C1134.39 660.314 1135.09 660.452 1135.73 660.72C1136.38 660.988 1136.97 661.381 1137.47 661.877C1137.96 662.372 1138.35 662.96 1138.62 663.608C1138.89 664.255 1139.03 664.949 1139.03 665.65V688.164H1152.5C1153.93 688.164 1155.31 687.594 1156.32 686.58C1157.34 685.565 1157.91 684.188 1157.91 682.753V668.315L1138.7 649.107C1137.7 648.107 1137.14 646.749 1137.14 645.334C1137.14 643.919 1137.7 642.562 1138.7 641.561C1139.7 640.561 1141.06 639.998 1142.48 639.998C1143.89 639.998 1145.25 640.561 1146.25 641.561L1157.91 653.223V636.568C1157.91 635.153 1158.47 633.796 1159.47 632.795C1160.47 631.795 1161.83 631.232 1163.24 631.232C1164.66 631.232 1166.01 631.795 1167.01 632.795C1168.01 633.796 1168.58 635.153 1168.58 636.568V683.398C1168.58 687.493 1166.95 691.419 1164.05 694.314C1161.16 697.209 1157.23 698.836 1153.14 698.836H1139.03V698.842H1128.36V698.836H1113.03V698.884L1105.41 698.855C1104.75 698.852 1104.1 698.98 1103.49 699.23C1102.88 699.481 1102.33 699.849 1101.86 700.314C1101.4 700.779 1101.03 701.331 1100.77 701.939C1100.52 702.548 1100.39 703.2 1100.39 703.858V719.032H1089.72V700.803C1089.72 697.451 1091.05 694.237 1093.42 691.866C1095.79 689.496 1099.01 688.164 1102.36 688.164Z" fill="#383B3E"/>
<path d="M959.39 768.111H1091.38C1100.3 768.111 1108.86 771.655 1115.17 777.965C1121.47 784.274 1125.02 792.831 1125.02 801.754V805.801C1125.02 814.723 1121.47 823.281 1115.17 829.59C1108.86 835.899 1100.3 839.444 1091.38 839.444H955.344C946.423 839.444 937.868 835.899 931.56 829.59C925.252 823.281 921.708 814.723 921.708 805.801C921.708 795.805 925.678 786.218 932.745 779.15C939.812 772.082 949.396 768.111 959.39 768.111Z" fill="#7D8389"/>
<path d="M957.462 775.622H958.893C969.735 775.622 980.133 779.93 987.799 787.598C995.466 795.266 999.773 805.666 999.773 816.511V820.124C999.773 825.373 997.688 830.407 993.977 834.118C990.266 837.83 985.233 839.915 979.985 839.915H946.622C940.014 839.915 933.678 837.29 929.005 832.617C924.333 827.943 921.708 821.605 921.708 814.996V811.383C921.708 806.687 922.633 802.037 924.43 797.698C926.227 793.359 928.86 789.417 932.18 786.096C935.5 782.775 939.442 780.141 943.78 778.344C948.117 776.547 952.767 775.622 957.462 775.622Z" fill="#8A9097"/>
<path d="M938.092 839.444H991.874V858.231H938.092C935.601 858.231 933.212 857.241 931.451 855.479C929.69 853.718 928.7 851.329 928.7 848.837C928.7 847.604 928.943 846.382 929.415 845.243C929.887 844.103 930.579 843.068 931.451 842.195C932.323 841.323 933.358 840.631 934.498 840.159C935.637 839.687 936.858 839.444 938.092 839.444Z" fill="#8A9097"/>
<path d="M1058.45 839.444H1103.79C1106.28 839.444 1108.67 840.434 1110.43 842.195C1112.19 843.957 1113.18 846.346 1113.18 848.837C1113.18 851.329 1112.19 853.718 1110.43 855.479C1108.67 857.241 1106.28 858.231 1103.79 858.231H1058.45V839.444Z" fill="#7D8389"/>
<path d="M991.874 839.444H1010.18C1011.91 839.444 1013.62 839.785 1015.22 840.448C1016.82 841.111 1018.28 842.082 1019.5 843.307C1020.73 844.532 1021.7 845.986 1022.36 847.586C1023.02 849.186 1023.36 850.901 1023.36 852.633V858.231H991.874L991.874 839.444Z" fill="#2E3033"/>
<path d="M1058.45 858.23H1026.96V852.633C1026.96 849.135 1028.35 845.78 1030.82 843.307C1033.29 840.833 1036.65 839.444 1040.14 839.444H1058.45V858.23Z" fill="#2E3033"/>
<path d="M1046.44 782.807C1048.86 804.473 1076.57 803.145 1080.77 809.844C1087.83 821.088 1067.18 824.888 1080.77 824.888C1102.47 824.888 1125.02 806.048 1125.02 782.807C1125.02 782.807 1130.54 737.124 1085.73 736.755C1040.92 736.385 1046.44 782.807 1046.44 782.807Z" fill="#B2B9C0"/>
<path d="M1113.69 769.525C1111.97 784.942 1092.25 783.997 1089.26 788.764C1084.24 796.765 1098.93 799.469 1089.26 799.469C1073.82 799.469 1057.77 786.063 1057.77 769.525C1057.77 769.525 1053.84 737.017 1085.73 736.754C1117.62 736.491 1113.69 769.525 1113.69 769.525Z" fill="#D0D4D8"/>
<path d="M1097.7 726.724C1104.7 708.319 1117.07 703.397 1134.8 711.958C1130.81 729.394 1117.93 734.322 1097.7 726.724Z" fill="#7D8389"/>
<path d="M1107.17 722.678C1111.34 713.591 1118.07 710.915 1127.34 714.649C1124.8 723.195 1117.8 725.886 1107.17 722.678Z" fill="#8A9097"/>
<path d="M1035.08 725.595H1100.44C1101.75 725.595 1103.04 725.853 1104.25 726.354C1105.46 726.855 1106.56 727.588 1107.48 728.514C1108.41 729.439 1109.14 730.537 1109.64 731.746C1110.14 732.955 1110.4 734.25 1110.4 735.559C1110.4 741.114 1108.19 746.442 1104.26 750.37C1100.34 754.298 1095.01 756.504 1089.46 756.504H1039.57C1035.73 756.504 1032.06 754.982 1029.35 752.271C1026.64 749.561 1025.12 745.885 1025.12 742.052V735.559C1025.12 732.916 1026.17 730.382 1028.03 728.514C1029.9 726.645 1032.44 725.595 1035.08 725.595Z" fill="#7D8389"/>
<path d="M1077.36 712.369H1085.57C1092.15 712.369 1098.47 714.986 1103.13 719.644C1107.78 724.301 1110.4 730.618 1110.4 737.205C1110.4 738.816 1109.76 740.361 1108.62 741.499C1107.48 742.638 1105.94 743.278 1104.33 743.278H1046.46C1046.46 735.081 1049.71 727.219 1055.51 721.422C1061.3 715.626 1069.16 712.369 1077.36 712.369Z" fill="#7D8389"/>
<path d="M1031.39 737.84C1037.64 737.84 1042.7 735.016 1042.7 731.533C1042.7 728.049 1037.64 725.226 1031.39 725.226C1025.14 725.226 1020.07 728.049 1020.07 731.533C1020.07 735.016 1025.14 737.84 1031.39 737.84Z" fill="#006C3A"/>
<path d="M659.108 747.076H761.14V645.021H659.108V747.076Z" fill="#B8EFC9"/>
<path d="M677.632 645.021H726.142V608.544H677.632V645.021Z" fill="#5EBD82"/>
<path d="M652.077 608.52H748.252V590.281H652.077V608.52Z" fill="#383B3E"/>
<path d="M695.97 590.257H726.529V564.148H695.97V590.257Z" fill="#A4ABB3"/>
<path d="M709.314 590.257H713.185V564.148H709.314V590.257Z" fill="#004523"/>
<path d="M677.632 622.773V629.016H726.142V622.773H677.632Z" fill="#00381B"/>
<path d="M689.728 645.021H695.97V608.52H689.728V645.021Z" fill="#00381B"/>
<path d="M595.866 622.773L591.598 706.912L654.839 710.122L659.108 625.983L595.866 622.773Z" fill="#383B3E"/>
<path d="M634.439 624.731L623.615 624.181L619.346 708.321L630.171 708.87L634.439 624.731Z" fill="#86D7A2"/>
<path d="M594.802 643.753L594.253 654.58L657.536 657.792L658.085 646.965L594.802 643.753Z" fill="#86D7A2"/>
<path d="M699.168 608.544H701.429V590.257H699.168V608.544Z" fill="#219557"/>
<path d="M652.01 598.277V600.524H748.319V598.277H652.01Z" fill="#219557"/>
<path d="M590.334 622.52L626.002 624.32L627.19 600.786L591.521 598.986L590.334 622.52Z" fill="#979EA4"/>
<path d="M591.039 608.043L590.766 613.459L626.484 615.262L626.757 609.846L591.039 608.043Z" fill="#219557"/>
<path d="M612.063 600.022L606.647 599.749L605.46 623.283L610.875 623.556L612.063 600.022Z" fill="#219557"/>
<path d="M703.652 747.076H714.206V645.021H703.652V747.076Z" fill="#A4ABB3"/>
<path d="M761.14 699.028V688.471H659.108V699.028H761.14Z" fill="#A4ABB3"/>
<path d="M709.982 564.832L712.719 562.094L704.167 553.54L701.43 556.278L709.982 564.832Z" fill="#004523"/>
<path d="M709.172 563.486L711.909 566.224L719.727 558.405L716.99 555.667L709.172 563.486Z" fill="#004523"/>
<path d="M589.628 606.419L533.042 608.904L536.565 689.131L593.15 686.646L589.628 606.419Z" fill="#37A264"/>
<path d="M564.919 607.504L557.751 607.819L561.274 688.046L568.441 687.731L564.919 607.504Z" fill="#2E3033"/>
<path d="M580.181 593.722L574.89 588.875L559.749 605.411L565.04 610.257L580.181 593.722Z" fill="#2E3033"/>
<path d="M551.319 593.856L546.473 599.148L560.35 611.86L565.195 606.568L551.319 593.856Z" fill="#2E3033"/>
<path d="M517.943 625.372L526.723 630.08C526.236 628.28 526.287 626.378 526.869 624.608C527.451 622.837 528.539 621.276 529.998 620.116C531.457 618.957 533.224 618.25 535.08 618.083C536.935 617.916 538.8 618.296 540.442 619.177C542.084 620.058 543.433 621.4 544.321 623.038C545.21 624.677 545.599 626.539 545.442 628.396C545.284 630.254 544.586 632.024 543.434 633.489C542.282 634.954 540.726 636.05 538.959 636.64L547.739 641.348C548.863 641.951 549.701 642.976 550.069 644.197C550.438 645.418 550.306 646.736 549.704 647.86C549.101 648.984 548.077 649.823 546.856 650.192C545.636 650.561 544.318 650.43 543.194 649.828L536.505 646.241L531.66 655.281L532.001 666.098C532.02 666.685 531.923 667.27 531.715 667.819C531.508 668.368 531.195 668.871 530.793 669.299C530.391 669.726 529.909 670.071 529.374 670.313C528.84 670.554 528.262 670.688 527.676 670.707L526.994 670.728C526.407 670.747 525.823 670.649 525.274 670.442C524.725 670.235 524.222 669.921 523.794 669.519C523.367 669.118 523.022 668.635 522.781 668.101C522.539 667.566 522.405 666.988 522.387 666.402L521.982 653.564L511.069 660.333C510.57 660.643 510.015 660.851 509.436 660.946C508.857 661.041 508.265 661.021 507.694 660.887C507.122 660.753 506.583 660.507 506.107 660.165C505.63 659.823 505.225 659.39 504.916 658.891L504.557 658.311C504.247 657.812 504.039 657.257 503.944 656.678C503.849 656.099 503.87 655.506 504.003 654.935C504.137 654.363 504.383 653.824 504.725 653.347C505.067 652.871 505.5 652.466 505.999 652.157L515.288 646.395L520.087 637.439L513.398 633.852C512.841 633.554 512.349 633.149 511.949 632.66C511.549 632.171 511.249 631.608 511.066 631.003C510.883 630.398 510.822 629.764 510.884 629.135C510.947 628.506 511.133 627.896 511.431 627.339C511.73 626.783 512.135 626.29 512.624 625.89C513.112 625.49 513.675 625.19 514.28 625.007C514.884 624.824 515.519 624.762 516.148 624.825C516.776 624.888 517.386 625.074 517.943 625.372Z" fill="#4E5256"/>
<path d="M528.643 643.266C529.82 643.266 530.774 642.312 530.774 641.135C530.774 639.958 529.82 639.004 528.643 639.004C527.466 639.004 526.512 639.958 526.512 641.135C526.512 642.312 527.466 643.266 528.643 643.266Z" fill="#EFF1F2"/>
<path d="M539.712 628.317C540.33 628.317 540.832 627.815 540.832 627.197C540.832 626.578 540.33 626.077 539.712 626.077C539.094 626.077 538.592 626.578 538.592 627.197C538.592 627.815 539.094 628.317 539.712 628.317Z" fill="#EFF1F2"/>
<path d="M534.076 625.294C534.694 625.294 535.195 624.793 535.195 624.175C535.195 623.556 534.694 623.055 534.076 623.055C533.457 623.055 532.956 623.556 532.956 624.175C532.956 624.793 533.457 625.294 534.076 625.294Z" fill="#EFF1F2"/>
<path d="M525.273 649.612C526.45 649.612 527.404 648.658 527.404 647.481C527.404 646.304 526.45 645.35 525.273 645.35C524.096 645.35 523.142 646.304 523.142 647.481C523.142 648.658 524.096 649.612 525.273 649.612Z" fill="#EFF1F2"/>
<path d="M548.025 641.503C547.455 642.561 545.829 641.685 545.26 642.743C544.69 643.802 546.316 644.677 545.746 645.735C545.176 646.795 543.55 645.92 542.98 646.98C542.409 648.039 544.035 648.915 543.464 649.975" stroke="#EFF1F2" stroke-width="1.90813" stroke-miterlimit="10"/>
<path d="M532.003 666.221C530.802 666.256 530.748 664.41 529.548 664.445C528.346 664.48 528.4 666.326 527.199 666.361C525.996 666.396 525.942 664.55 524.739 664.585C523.536 664.62 523.59 666.466 522.387 666.5" stroke="#EFF1F2" stroke-width="1.90813" stroke-miterlimit="10"/>
<path d="M510.678 660.56C510.058 659.528 511.643 658.576 511.023 657.544C510.403 656.511 508.819 657.463 508.199 656.43C507.578 655.396 509.163 654.444 508.542 653.41C507.921 652.376 506.337 653.327 505.716 652.293" stroke="#EFF1F2" stroke-width="1.91015" stroke-miterlimit="10"/>
<path d="M513.415 633.858C513.987 632.799 515.611 633.677 516.184 632.618C516.756 631.559 515.132 630.681 515.704 629.622C516.278 628.561 517.902 629.439 518.475 628.378C519.049 627.317 517.425 626.439 517.998 625.378" stroke="#EFF1F2" stroke-width="1.90813" stroke-miterlimit="10"/>
<path d="M538.708 631.441C535.366 634.17 530.833 632.057 530.974 627.591" stroke="#EFF1F2" stroke-width="1.90813" stroke-miterlimit="10" stroke-linecap="round"/>
<path d="M832.895 717.878C832.105 723.804 822.911 731.438 809.07 737.067C809.179 735.988 809.233 734.905 809.233 733.821C794.747 739.584 779.513 743.251 763.991 744.711C742.736 743.781 719.83 736.327 700.39 717.248C639.204 657.991 596.058 651.08 563.504 654.014C546.8 652.398 532.503 654.589 519.97 656.897L540.05 730.807C542.777 740.845 548.73 749.707 556.992 756.024C565.254 762.342 575.364 765.765 585.764 765.765H800.958C805.152 765.765 809.305 764.939 813.18 763.333C817.055 761.728 820.575 759.375 823.541 756.409C826.507 753.442 828.859 749.921 830.464 746.045C832.069 742.17 832.895 738.016 832.895 733.821L832.895 717.878Z" fill="#005F32"/>
<path d="M637.344 800.229V765.765H648.847V800.229H774.703V765.765H786.205V800.229H834.31C845.169 800.229 855.583 795.915 863.262 788.234C870.94 780.554 875.254 770.138 875.254 759.276V758.831C875.254 753.453 874.195 748.127 872.137 743.159C870.08 738.19 867.064 733.675 863.262 729.872C859.46 726.07 854.946 723.053 849.979 720.995C845.011 718.937 839.687 717.878 834.31 717.878C823.332 717.923 798.89 709.262 798.298 682.727C797.707 656.192 814.062 646.939 833.487 647.531C865.209 648.498 870.686 690.923 836.639 694.602C835.903 694.677 835.159 694.595 834.456 694.364C833.753 694.132 833.107 693.756 832.559 693.258C832.01 692.761 831.573 692.154 831.274 691.476C830.976 690.799 830.822 690.066 830.825 689.326C830.831 688.013 831.322 686.748 832.204 685.775C833.086 684.801 834.296 684.189 835.603 684.054C855.75 681.827 847.837 658.911 833.487 659.05C818.107 659.2 810.022 664.475 809.815 682.727C809.727 699.483 825.008 706.404 834.088 706.404C841 706.404 847.845 707.766 854.231 710.411C860.618 713.057 866.421 716.935 871.308 721.824C876.196 726.713 880.074 732.518 882.719 738.905C885.364 745.293 886.726 752.139 886.726 759.053C886.726 773.017 881.18 786.409 871.308 796.282C861.437 806.156 848.048 811.703 834.088 811.703H502.636C501.882 811.703 501.137 811.555 500.441 811.267C499.745 810.978 499.112 810.556 498.58 810.023C498.047 809.49 497.625 808.858 497.337 808.162C497.048 807.466 496.9 806.72 496.9 805.966C496.9 805.213 497.048 804.467 497.337 803.771C497.625 803.075 498.047 802.442 498.58 801.91C499.112 801.377 499.745 800.954 500.441 800.666C501.137 800.378 501.882 800.229 502.636 800.229L637.344 800.229Z" fill="#979EA4"/>
<path d="M691.813 723.342C618.871 655.699 573.648 664.752 523.206 668.807C516.716 669.329 514.191 655.652 520.81 655.023C565.464 650.773 633.605 641.181 700.39 711.925C746.012 760.251 806.35 735.684 825.26 716.825C826.921 715.792 834.535 713.899 835.36 721.794C837.423 738.434 755.839 782.716 691.813 723.342Z" fill="#004523"/>
</svg>
